<svg xmlns="http://www.w3.org/2000/svg" viewBox="0 0 800 244.6"><path d="M608.6 174.2H600c1.4-.3 1.9-1.1 1.4-1.8l-1.9-2.6c-3 3.1-6.7 5-9.8 5-8.9 0-12.9-4.5-12.7-9.7.2-4.4 3.4-9.4 9.5-12.4l-1.5-2c-3.1-4.1-1.3-11.2 5.2-12.6 4.9-1.2 9 1.1 8.2 5.6-.6 3.6-4.5 5.7-8 7.6l11.3 14.7c2.5-3.9 2.8-9.5 1.6-14.3l3.4 2.1c0 3.8-2.6 9.8-4.6 12.7l4.6 6.3c.5.7 1 1 1.9 1.3Zm-21.7-20.9c-4.6 2.1-6.4 7.3-6 11.8.4 4.9 3.6 9 8.6 9s6.7-1.8 9.6-4.8l-12.2-15.9Zm7.5-9.7c0-3.2-1.5-5.3-3.9-4.9-5.4 1-3.6 8.9-.5 11.9 2.8-1.1 4.4-4 4.4-7m1.4-34.6c2.5 0 4.8-2.3 5.8-4.9l-1.2 5.4h-21.3c1.2-.7 1.5-2.1 1.5-3.6V77.7c0-1.5-.3-2.9-1.5-3.6h6.7c-1.3.7-1.6 2.1-1.6 3.6v31.2h11.6Zm54.1-3.1c.6 1.6 1.9 3 3 3.6H644c1.8-.7 2.6-2.2 2.1-3.6l-3-8h-14.5l-3.1 8c-.6 1.5.3 2.9 2 3.6h-5.6c1.1-.6 2.4-2 3-3.6l12.3-31.8h.9l11.9 31.8Zm-7-8.5-7-18.7-7.2 18.7zm43-23.8c3.4 0 7.5 1.3 10.1 3.7l-1.3 4.9c-1.3-3.6-4.5-8-9.1-8s-6.6 2.3-6.6 6.6c0 10.3 19.1 7.9 19.1 19.6s-4.6 9.7-11.9 9.7-9.5-1.7-11.6-4.3l1.2-4.4c1.4 4.9 5.9 8.2 10.8 8.2s7.8-3.1 7.8-7.4c0-10.6-18.7-8.8-18.7-19.8s4.9-8.6 10.2-8.6Zm41.3 1.1v15.9h11.6c.9 0 2-.5 2.5-2.2V93c-.5-1.3-1.7-1.8-2.5-1.8h-11.6v17.9h11.6c2.5 0 4.8-2.1 5.8-4.7l-1.2 5.2h-21.8c1.2-.7 2-2.1 2-3.6V77.8c0-1.5-.8-2.9-2-3.6h21.8l1.2 5.2c-1-2.6-3.3-4.7-5.8-4.7zm54.4 19.5 6.8 9.5c1.9 2.7 4.6 4.6 7.2 5.8h-10.3c2.6-1 .6-3.2-.2-4.2l-7.3-10c-1.4.3-2.8.6-4.3.8v9.8c0 1.5.8 2.9 2.1 3.6h-7.2c1.2-.7 1.5-2.1 1.5-3.6V76.8c0-1.1-.6-2.1-1.3-2.7h10.5c7.8 0 13.1 3.3 13.1 8.5s-4 9.3-10.6 11.5Zm-8.1-19.5v20.8c1.9-.3 3.5-.6 5-1.1l.6-.2c6.4-2.1 9.5-6 9.5-11.5s-3.9-8-9.6-8h-5.6Zm-126.2 63.1c3.5 0 7.6 1.3 10.1 3.7l-1.3 4.9c-1.3-3.7-4.5-8.1-9.2-8.1s-6.7 2.3-6.7 6.6c0 10.4 19.2 7.9 19.2 19.7s-4.6 9.7-11.9 9.7-9.5-1.7-11.6-4.3l1.2-4.5c1.4 4.9 5.9 8.3 10.9 8.3s7.9-3.1 7.9-7.4c0-10.6-18.8-8.8-18.8-19.9s4.9-8.7 10.3-8.7Zm36.1 36c1.2-.7 1.5-2.1 1.5-3.6v-28.3c0-1.5-.3-2.9-1.5-3.6h6.7c-1.3.7-1.6 2.1-1.6 3.6v12.6l12.1-11.5c1.8-1.7 3.3-4 .7-4.6h7.1c-2.2.6-5.2 2.8-7.1 4.6l-10.1 9.6 12.5 15.5c2.1 2.5 4.6 4.6 7.3 5.8h-10.5c1.4-1.2.8-3.3 0-4.2l-11.8-14.4-.2.3v14.8c0 1.5.3 2.9 1.6 3.6h-6.7Zm49.8 0c1.2-.7 2-2.1 2-3.6v-28.3c0-1.5-.8-2.9-2-3.6h7.7c-1.3.7-2.1 2.1-2.1 3.6v28.3c0 1.5.8 2.9 2.1 3.6zm32.6 0c1.3-.7 1.6-2.1 1.6-3.6v-28c0-1.1-2.4-3.3-3.6-3.9h5.2l23.4 30.2v-26.6c0-1.5-.3-2.9-1.5-3.6h3.6c-1.2.7-1.5 2.1-1.5 3.6v31.9h-.8l-24.3-31.2v27.6c0 1.5.3 2.9 1.5 3.6zm-542.4-9.6c1.6 4.6 5.5 8.8 8.8 10.6H206c5.4-2.1 7.6-6.5 6.1-10.6l-8.9-23.7h-42.7l-9.1 23.7c-1.6 4.3.7 8.5 5.9 10.6h-16.5c3.3-1.8 7.1-6 8.9-10.6l36.1-93.4h2.5l35 93.4Zm-20.6-25.1-20.5-54.9-21.1 54.9zm103.5-9.2 20.1 27.8c5.7 7.9 13.4 13.5 21.3 17.1h-30.3c7.7-3 1.6-9.4-.6-12.3l-21.6-29.3c-4 .9-8.2 1.6-12.8 2.2v28.9c0 4.5 2.4 8.6 6.1 10.6h-21.1c3.6-1.9 4.5-6.1 4.5-10.6V78.8c0-3.1-1.6-6.2-3.9-7.9h30.8c23.1 0 38.7 9.7 38.7 25.1s-11.8 27.4-31.1 33.9Zm-23.9-57.6v61.3q8.25-1.05 14.7-3.3l1.8-.6c18.7-6.1 28-17.6 28-33.8s-11.5-23.7-28.1-23.7h-16.4Zm133.4 57.6 20.1 27.8c5.7 7.9 13.4 13.5 21.3 17.1h-30.3c7.7-3 1.6-9.4-.6-12.3l-21.6-29.3c-4 .9-8.2 1.6-12.8 2.2v28.9c0 4.5 2.4 8.6 6.1 10.6h-21.1c3.6-1.9 4.5-6.1 4.5-10.6V78.8c0-3.1-1.6-6.2-3.9-7.9h30.8c23.1 0 38.7 9.7 38.7 25.1s-11.8 27.4-31.1 33.9Zm-23.9-57.6v61.3q8.25-1.05 14.7-3.3l1.8-.6c18.7-6.1 28-17.6 28-33.8s-11.5-23.7-28.1-23.7h-16.4ZM95.6 58.8h-1.7l-38.8 93.3-37.8-81.4H3.5C7.1 72.6 8 76.8 8 81.3v83.1c0 4.5-.9 8.6-4.5 10.6h10.6c-3.6-1.9-4.6-6.1-4.6-10.6V79.1l41.1 88.2 45-108.4Zm14.5 105.5V81.2c0-4.5.9-8.6 4.6-10.6h-14.6l-47 114.2h1.6c0 .1 44.8-108.7 44.8-108.7v88.2c0 4.5-.9 8.6-4.5 10.6h19.7c-3.7-1.9-4.6-6.1-4.6-10.6M545 60.3l3.5-8.4v-.1L563.3 16 568 4.6h-3.5l-97.3 236.1 3.4.3z" class="st0"/></svg>